<?xml version="1.0" encoding="utf-8"?>
<!-- Generator: Adobe Illustrator 17.0.0, SVG Export Plug-In . SVG Version: 6.00 Build 0)  -->
<!DOCTYPE svg PUBLIC "-//W3C//DTD SVG 1.1//EN" "http://www.w3.org/Graphics/SVG/1.1/DTD/svg11.dtd">
<svg version="1.1" id="Layer_1" xmlns="http://www.w3.org/2000/svg" xmlns:xlink="http://www.w3.org/1999/xlink" x="0px" y="0px"
	 width="1280px" height="800px" viewBox="0 0 1280 800" enable-background="new 0 0 1280 800" xml:space="preserve">
<g>
	<path fill="none" stroke="#000000" stroke-width="2" stroke-miterlimit="10" d="M353.788,299.957l7.98,0.229
		c5.235,0.153,8.66,0.229,10.278,0.229c1.446,0,7.554-0.152,18.322-0.459l0.511,0.401v2.866l-0.511,0.401
		c-2.937,0.077-5.203,0.192-6.799,0.344c-1.596,0.153-2.756,0.44-3.48,0.86c-0.724,0.421-1.203,1.404-1.436,2.952
		c-0.235,1.547-0.351,3.697-0.351,6.449l-0.128,13.184v26.54l0.064,11.178c0.042,4.319,0.169,7.108,0.383,8.369
		c0.212,1.261,0.521,2.102,0.926,2.522c0.404,0.421,1.181,0.774,2.33,1.06c1.149,0.287,3.979,0.507,8.491,0.659l0.511,0.344v2.866
		l-0.511,0.459c-0.214,0-3.958-0.115-11.236-0.344c-3.022-0.077-5.384-0.115-7.086-0.115c-1.32,0-7.406,0.152-18.259,0.459
		l-0.511-0.459v-2.866l0.511-0.344c3.958-0.152,6.597-0.344,7.916-0.573c1.319-0.229,2.203-0.525,2.649-0.889
		c0.447-0.363,0.808-1.136,1.085-2.321c0.276-1.184,0.436-3.821,0.479-7.911l0.064-12.095v-26.54l-0.128-11.178
		c-0.043-4.357-0.16-7.165-0.351-8.426c-0.192-1.261-0.49-2.101-0.894-2.522c-0.405-0.42-1.182-0.764-2.33-1.032
		c-1.149-0.267-3.98-0.477-8.491-0.631l-0.511-0.401v-2.866L353.788,299.957z"/>
	<path fill="none" stroke="#000000" stroke-width="2" stroke-miterlimit="10" d="M422.18,326.326l1.213,0.745
		c-0.256,2.561-0.426,5.924-0.511,10.089c3.404-2.522,6.639-5.082,9.704-7.681c0.894-0.726,1.733-1.261,2.522-1.605
		c0.787-0.344,2.096-0.707,3.926-1.089c1.829-0.382,3.703-0.573,5.618-0.573c3.234,0,6.373,0.593,9.416,1.777
		c3.042,1.185,5.341,2.589,6.895,4.213c1.553,1.625,2.628,3.545,3.224,5.761c0.595,2.217,0.894,4.949,0.894,8.197v10.089
		c0,0.65,0.105,5.408,0.319,14.273c0.085,3.631,0.532,5.79,1.341,6.477c0.808,0.688,3.447,1.032,7.916,1.032l0.511,0.459v2.465
		l-0.511,0.459c-5.405-0.306-9.065-0.459-10.98-0.459c-1.107,0-4.214,0.152-9.321,0.459l-0.766-0.631
		c0.552-4.967,0.83-11.445,0.83-19.432v-7.509c0-4.509-0.118-7.757-0.351-9.745c-0.234-1.987-0.948-3.792-2.139-5.417
		c-1.192-1.624-2.788-2.885-4.788-3.783c-2.001-0.897-4.384-1.347-7.151-1.347c-2.213,0-4.107,0.2-5.682,0.602
		c-1.575,0.401-3.341,1.223-5.299,2.464c-1.958,1.242-3.405,2.408-4.341,3.497c-0.937,1.089-1.5,2.102-1.692,3.038
		c-0.192,0.937-0.287,2.934-0.287,5.99v9.974c0,0.841,0.085,3.545,0.256,8.111c0.169,4.567,0.351,7.233,0.542,7.997
		c0.192,0.765,0.479,1.318,0.862,1.662c0.383,0.344,0.851,0.564,1.404,0.659c0.552,0.096,2.851,0.258,6.895,0.487l0.574,0.459v2.408
		l-0.511,0.516c-5.321-0.306-10.449-0.459-15.385-0.459c-4.895,0-10.002,0.152-15.322,0.459l-0.575-0.516v-2.408l0.575-0.459
		c4.128-0.229,6.458-0.401,6.991-0.516c0.532-0.115,0.999-0.353,1.404-0.716c0.404-0.363,0.68-0.917,0.83-1.663
		c0.149-0.745,0.319-3.21,0.511-7.394c0.192-4.185,0.287-7.347,0.287-9.487v-11.293c0-1.528-0.086-3.611-0.255-6.248
		c-0.171-2.637-0.31-4.261-0.415-4.872c-0.107-0.611-0.437-1.061-0.99-1.347c-0.553-0.287-1.66-0.43-3.32-0.43l-5.363-0.057
		l-0.575-0.459v-2.465l0.511-0.459C409.752,329.746,416.604,328.313,422.18,326.326z"/>
	<path fill="none" stroke="#000000" stroke-width="2" stroke-miterlimit="10" d="M539.156,372.528l-2.043,4.127
		c-4.427,2.561-8.374,4.223-11.842,4.987c-3.469,0.764-6.565,1.146-9.289,1.146c-5.108,0-9.95-0.899-14.524-2.694
		c-4.575-1.796-8.299-4.834-11.172-9.114c-2.873-4.28-4.309-9.439-4.309-15.477c0-4.013,0.553-7.633,1.66-10.863
		c1.106-3.229,2.266-5.626,3.479-7.194c1.213-1.566,3.266-3.305,6.161-5.216c2.894-1.91,5.958-3.439,9.193-4.586
		c3.234-1.146,6.724-1.72,10.47-1.72c5.107,0,9.608,1.08,13.502,3.238c3.894,2.16,6.629,4.921,8.204,8.283
		c1.574,3.363,2.362,6.936,2.362,10.719c0,1.185-0.064,2.332-0.191,3.439l-0.702,0.631c-2.895,0.573-6.789,0.956-11.683,1.146
		c-4.895,0.192-8.13,0.287-9.704,0.287h-20.493c0.085,7.911,2.298,13.739,6.639,17.483c4.342,3.746,9.661,5.618,15.961,5.618
		c2.978,0,5.841-0.459,8.586-1.376c2.745-0.917,5.65-2.197,8.714-3.841L539.156,372.528z M498.234,349.083
		c0.766,0.115,3.713,0.249,8.842,0.401c5.128,0.153,8.927,0.229,11.396,0.229c5.915,0,9.513-0.095,10.789-0.287
		c0.042-0.917,0.064-1.624,0.064-2.121c0-5.923-1.341-10.327-4.022-13.213c-2.681-2.885-6.342-4.328-10.98-4.328
		c-5.065,0-9.013,1.625-11.842,4.872C499.648,337.886,498.234,342.701,498.234,349.083z"/>
	<path fill="none" stroke="#000000" stroke-width="2" stroke-miterlimit="10" d="M558.072,364.101h2.745l0.575,0.516
		c0.085,3.21,0.297,5.962,0.639,8.254c1.319,1.797,3.596,3.259,6.831,4.385c3.234,1.127,6.426,1.691,9.576,1.691
		c4.51,0,8.117-1.089,10.821-3.267c2.702-2.178,4.054-4.776,4.054-7.796c0-1.643-0.489-3.067-1.468-4.27
		c-0.979-1.204-2.458-2.197-4.437-2.981c-1.979-0.783-5.522-1.71-10.63-2.78c-4.384-0.917-7.448-1.634-9.193-2.149
		c-1.746-0.516-3.426-1.385-5.043-2.608c-1.618-1.222-2.852-2.723-3.703-4.5c-0.852-1.777-1.277-3.735-1.277-5.876
		c0-5.12,2.266-9.219,6.799-12.296c4.533-3.075,10.183-4.614,16.95-4.614c2.851,0,5.958,0.354,9.321,1.06
		c3.362,0.708,5.915,1.386,7.661,2.035l0.575,0.803c-0.341,1.529-0.554,5.542-0.639,12.038l-0.575,0.516H595.1l-0.575-0.516
		c-0.171-2.331-0.405-3.964-0.702-4.901c-0.298-0.936-1.064-1.949-2.298-3.038c-1.235-1.09-2.98-2.007-5.235-2.751
		c-2.257-0.746-4.639-1.118-7.151-1.118c-2.596,0-4.778,0.344-6.544,1.032c-1.767,0.688-3.192,1.729-4.277,3.124
		c-1.085,1.396-1.628,3.087-1.628,5.073c0,1.453,0.329,2.751,0.989,3.898c0.659,1.146,1.67,2.073,3.033,2.78
		c1.361,0.707,2.787,1.214,4.277,1.519l6.959,1.605c5.958,1.3,10.224,2.427,12.8,3.382c2.575,0.956,4.565,2.399,5.969,4.328
		c1.404,1.93,2.107,4.271,2.107,7.022c0,5.274-2.426,9.802-7.278,13.585c-4.852,3.783-11.087,5.675-18.706,5.675
		c-2.681,0-6.012-0.268-9.991-0.803c-3.98-0.535-7.373-1.128-10.182-1.777l-0.32-0.745l0.639-3.841
		c0.212-1.184,0.34-2.379,0.383-3.582c0.042-1.204,0.085-3.735,0.128-7.595L558.072,364.101z"/>
	<path fill="none" stroke="#000000" stroke-width="2" stroke-miterlimit="10" d="M626.848,342.089l-2.49-0.573l-0.511-0.573v-7.108
		c7.575-5.044,14.939-7.567,22.089-7.567c4.894,0,8.959,0.822,12.194,2.465c3.234,1.644,5.575,3.698,7.022,6.162
		c1.447,2.465,2.171,5.341,2.171,8.627l-0.319,11.522v17.082c0,2.332,0.18,3.746,0.542,4.242c0.361,0.497,0.776,0.831,1.245,1.003
		c0.468,0.171,1.341,0.315,2.618,0.43l3.639,0.287l0.511,0.516v2.293l-0.511,0.459c-3.107-0.229-6.001-0.344-8.682-0.344
		c-2.554,0-5.618,0.115-9.193,0.344l-0.958-0.803l0.255-9.229l-13.917,9.745c-2.341,0.878-4.895,1.318-7.661,1.318
		c-3.406,0-6.331-0.555-8.778-1.662c-2.448-1.108-4.32-2.655-5.618-4.643c-1.299-1.987-1.947-4.394-1.947-7.223
		c0-5.618,1.957-10.003,5.873-13.155c3.915-3.153,14.598-5.837,32.048-8.054c0-5.655-1.404-9.639-4.213-11.952
		c-2.809-2.312-6.576-3.468-11.3-3.468c-2.469,0-4.714,0.325-6.735,0.974c-2.022,0.65-3.182,1.175-3.48,1.576
		c-0.298,0.402-1.448,2.743-3.447,7.022L626.848,342.089z M656.47,351.146c-11.917,1.797-19.344,3.726-22.28,5.79
		c-2.937,2.064-4.405,5.255-4.405,9.573c0,5.962,3.298,8.942,9.896,8.942c5.66,0,11.257-2.942,16.79-8.828V351.146z"/>
	<path fill="none" stroke="#000000" stroke-width="2" stroke-miterlimit="10" d="M722.01,381.413l-0.575-0.459v-2.981l0.575-0.459
		c3.106-0.038,5.107-0.181,6.001-0.43c0.894-0.248,1.692-0.745,2.394-1.49c0.702-0.745,2.116-3.181,4.245-7.308l6.704-13.07
		l17.365-35.311c3.276-6.916,6.532-13.833,9.768-20.751h4.148l27.261,57.552l3.639,7.681c1.063,2.178,2.287,4.548,3.671,7.108
		c1.382,2.561,2.339,4.07,2.872,4.529c0.532,0.459,1.191,0.812,1.979,1.06c0.788,0.249,2.543,0.392,5.267,0.43l0.511,0.459v2.981
		l-0.511,0.459c-4.511-0.344-8.575-0.516-12.194-0.516c-7.064,0.191-14.131,0.363-21.195,0.516l-0.51-0.459v-2.981l0.51-0.459
		c4.767-0.076,7.746-0.258,8.939-0.545c1.191-0.286,1.787-0.946,1.787-1.977c0-0.84-0.299-1.949-0.894-3.325l-7.853-17.483h-36.964
		l-6.958,14.675c-1.234,2.637-1.852,4.567-1.852,5.79c0,0.956,0.576,1.662,1.724,2.121c1.149,0.459,4.043,0.707,8.682,0.745
		l0.575,0.459v2.981l-0.51,0.459c-5.491-0.306-10.3-0.459-14.428-0.459C731.501,380.954,726.777,381.107,722.01,381.413z
		 M751.122,349.255h32.304l-16.024-34.566L751.122,349.255z"/>
	<path fill="none" stroke="#000000" stroke-width="2" stroke-miterlimit="10" d="M851.691,326.326l1.213,0.745
		c-0.256,2.217-0.447,6.153-0.575,11.808l4.789-5.446c1.573-1.796,2.968-3.181,4.182-4.156c1.213-0.974,2.627-1.729,4.245-2.264
		c1.617-0.535,3.277-0.803,4.98-0.803c1.873,0,3.639,0.344,5.299,1.032l0.447,0.803c-0.682,5.083-1.064,9.554-1.149,13.413h-2.872
		c-1.703-3.515-4.449-5.274-8.235-5.274c-2.639,0-4.938,0.755-6.895,2.264c-1.959,1.51-3.267,3.402-3.926,5.675
		c-0.661,2.274-0.99,5.15-0.99,8.627v6.363c0,1.146,0.085,3.955,0.256,8.426c0.169,4.471,0.351,7.051,0.542,7.739
		c0.192,0.688,0.489,1.195,0.894,1.519c0.404,0.325,0.936,0.544,1.596,0.659c0.66,0.115,3.692,0.306,9.098,0.573l0.574,0.459v2.408
		l-0.574,0.516c-5.661-0.306-11.577-0.459-17.748-0.459c-4.896,0-10.002,0.152-15.322,0.459l-0.575-0.516v-2.408l0.575-0.459
		c4.128-0.229,6.457-0.401,6.991-0.516c0.531-0.115,0.999-0.353,1.404-0.716c0.404-0.363,0.681-0.917,0.83-1.663
		c0.149-0.745,0.319-3.21,0.51-7.394c0.192-4.185,0.288-7.347,0.288-9.487v-11.293c0-1.528-0.086-3.611-0.256-6.248
		c-0.17-2.637-0.31-4.261-0.415-4.872c-0.107-0.611-0.438-1.061-0.99-1.347c-0.553-0.287-1.66-0.43-3.319-0.43l-5.363-0.057
		l-0.575-0.459v-2.465l0.511-0.459C839.262,329.746,846.114,328.313,851.691,326.326z"/>
	<path fill="none" stroke="#000000" stroke-width="2" stroke-miterlimit="10" d="M888.036,335.956v-1.49l0.447-0.573
		c4-1.337,7.235-2.579,9.704-3.726c0-9.974-0.128-15.782-0.383-17.426c4.383-1.376,7.981-2.847,10.79-4.414l1.532,1.146
		c-0.426,2.408-0.936,9.401-1.532,20.98c2.127,0.039,4.426,0.057,6.895,0.057c5.021,0,8.618-0.115,10.789-0.344l0.447,0.401
		l-1.213,4.815l-0.511,0.516c-2.17-0.038-4.575-0.057-7.214-0.057c-2.384,0-5.448,0.02-9.193,0.057l-0.383,23.33
		c0,5.388,0.138,8.913,0.416,10.576c0.275,1.662,1.042,2.962,2.298,3.898c1.255,0.937,3.117,1.404,5.587,1.404
		c2.85,0,5.49-0.668,7.916-2.006l1.532,2.064c-1.021,0.65-3.47,2.561-7.342,5.732c-2.213,0.917-4.468,1.376-6.767,1.376
		c-9.576,0-14.364-4.165-14.364-12.496c0-3.057,0.085-5.655,0.256-7.796c0.042-0.649,0.063-1.318,0.063-2.006v-23.789h-2.617
		c-1.915,0-4.108,0.077-6.576,0.229L888.036,335.956z"/>
</g>
</svg>
