<?xml version="1.0" encoding="utf-8"?>
<!-- Generator: Adobe Illustrator 17.0.0, SVG Export Plug-In . SVG Version: 6.00 Build 0)  -->
<!DOCTYPE svg PUBLIC "-//W3C//DTD SVG 1.1//EN" "http://www.w3.org/Graphics/SVG/1.1/DTD/svg11.dtd">
<svg version="1.1" id="Layer_1" xmlns="http://www.w3.org/2000/svg" xmlns:xlink="http://www.w3.org/1999/xlink" x="0px" y="0px"
	 width="1280px" height="800px" viewBox="0 0 1280 800" enable-background="new 0 0 1280 800" xml:space="preserve">
<g>
	<path fill="none" stroke="#000000" stroke-miterlimit="10" d="M497.309,397.065l-22.571-47.348l0.656,37.596
		c0.06,3.459,0.471,5.617,1.233,6.474c1.043,1.162,2.672,1.744,4.885,1.744h1.992l0.027,1.534h-19.586l-0.027-1.534h1.992
		c2.379,0,4.055-0.72,5.025-2.158c0.593-0.886,0.862-2.905,0.808-6.06l-0.642-36.767c-0.043-2.49-0.352-4.288-0.924-5.395
		c-0.401-0.802-1.125-1.473-2.172-2.013c-1.047-0.539-2.718-0.809-5.014-0.809l-0.027-1.535h15.935l21.185,44.028l19.316-44.028
		h15.935l0.027,1.535h-1.95c-2.407,0-4.096,0.72-5.067,2.158c-0.594,0.886-0.862,2.905-0.808,6.059l0.642,36.767
		c0.06,3.459,0.485,5.617,1.275,6.474c1.044,1.162,2.672,1.744,4.886,1.744h1.95l0.027,1.534h-23.903l-0.027-1.534h1.992
		c2.407,0,4.082-0.72,5.025-2.158c0.593-0.886,0.862-2.905,0.808-6.06l-0.656-37.596l-20.877,47.348H497.309z"/>
	<path fill="none" stroke="#000000" stroke-miterlimit="10" d="M537.935,359.054h17.719l0.027,1.535h-0.871
		c-1.245,0-2.174,0.27-2.787,0.809c-0.613,0.54-0.913,1.211-0.898,2.013c0.019,1.079,0.501,2.573,1.447,4.482l9.589,19.172
		l8.141-20.998c0.45-1.134,0.666-2.255,0.646-3.361c-0.008-0.498-0.112-0.872-0.31-1.121c-0.227-0.304-0.577-0.546-1.051-0.726
		c-0.474-0.18-1.305-0.27-2.494-0.27l-0.026-1.535h12.366l0.026,1.535c-1.021,0.111-1.807,0.332-2.354,0.664
		c-0.548,0.332-1.146,0.955-1.794,1.868c-0.242,0.387-0.694,1.452-1.354,3.195l-14.817,37.928c-1.43,3.68-3.338,6.46-5.726,8.342
		c-2.389,1.881-4.702,2.822-6.943,2.822c-1.632,0-2.982-0.471-4.05-1.411c-1.068-0.941-1.612-2.021-1.633-3.237
		c-0.021-1.161,0.343-2.095,1.092-2.801c0.748-0.705,1.787-1.059,3.115-1.059c0.913,0,2.163,0.305,3.75,0.914
		c1.113,0.414,1.809,0.622,2.086,0.622c0.83,0,1.728-0.43,2.696-1.286c0.966-0.858,1.927-2.519,2.88-4.979l2.582-6.599
		l-14.153-28.675c-0.43-0.857-1.113-1.922-2.048-3.195c-0.709-0.968-1.287-1.618-1.735-1.95c-0.645-0.442-1.675-0.83-3.091-1.162
		L537.935,359.054z"/>
	<path fill="none" stroke="#000000" stroke-miterlimit="10" d="M639.802,339.509l0.34,19.462h-1.535
		c-0.563-3.735-1.508-6.708-2.832-8.922c-1.325-2.213-3.189-3.97-5.591-5.271c-2.402-1.3-4.876-1.95-7.421-1.95
		c-2.877,0-5.241,0.879-7.092,2.635c-1.851,1.758-2.756,3.756-2.717,5.997c0.03,1.716,0.652,3.278,1.866,4.689
		c1.751,2.075,5.88,4.841,12.387,8.299c5.306,2.822,8.933,4.987,10.882,6.494c1.949,1.509,3.46,3.286,4.535,5.333
		c1.072,2.048,1.629,4.191,1.668,6.433c0.074,4.261-1.516,7.933-4.767,11.018c-3.252,3.085-7.479,4.627-12.68,4.627
		c-1.633,0-3.171-0.125-4.613-0.374c-0.86-0.139-2.646-0.644-5.358-1.514c-2.713-0.872-4.429-1.308-5.147-1.308
		c-0.692,0-1.235,0.208-1.629,0.622c-0.394,0.416-0.677,1.272-0.847,2.573h-1.536l-0.337-19.297h1.536
		c0.789,4.04,1.81,7.062,3.063,9.067c1.252,2.007,3.142,3.672,5.669,5c2.526,1.328,5.284,1.992,8.271,1.992
		c3.458,0,6.174-0.912,8.148-2.738c1.974-1.825,2.939-3.983,2.896-6.474c-0.024-1.384-0.43-2.78-1.214-4.191
		c-0.786-1.411-1.992-2.724-3.617-3.942c-1.094-0.831-4.07-2.594-8.932-5.291c-4.86-2.698-8.322-4.849-10.383-6.453
		c-2.062-1.604-3.636-3.375-4.72-5.312c-1.086-1.936-1.648-4.066-1.688-6.391c-0.071-4.039,1.418-7.517,4.466-10.437
		c3.047-2.918,6.963-4.378,11.75-4.378c2.987,0,6.168,0.733,9.541,2.199c1.562,0.692,2.66,1.038,3.297,1.038
		c0.719,0,1.303-0.214,1.752-0.643c0.449-0.429,0.801-1.293,1.055-2.594H639.802z"/>
	<path fill="none" stroke="#000000" stroke-miterlimit="10" d="M661.92,346.563l0.218,12.491h8.881l0.051,2.905h-8.881l0.431,24.649
		c0.043,2.463,0.424,4.122,1.145,4.979c0.721,0.858,1.634,1.287,2.741,1.287c0.912,0,1.793-0.284,2.641-0.852
		c0.847-0.566,1.496-1.403,1.948-2.51h1.618c-0.921,2.711-2.255,4.751-4.001,6.121c-1.748,1.368-3.562,2.054-5.442,2.054
		c-1.272,0-2.524-0.354-3.753-1.058c-1.23-0.706-2.146-1.716-2.75-3.03c-0.604-1.313-0.931-3.34-0.978-6.079l-0.446-25.563h-6.018
		l-0.023-1.37c1.51-0.608,3.048-1.639,4.614-3.092c1.564-1.452,2.953-3.174,4.163-5.166c0.618-1.051,1.469-2.974,2.555-5.768H661.92
		z"/>
	<path fill="none" stroke="#000000" stroke-miterlimit="10" d="M693.283,357.934c5.754,0,10.412,2.186,13.975,6.557
		c3.025,3.735,4.58,8.023,4.664,12.864c0.06,3.403-0.696,6.847-2.268,10.333c-1.571,3.485-3.773,6.114-6.605,7.885
		c-2.832,1.77-6.006,2.655-9.519,2.655c-5.728,0-10.317-2.282-13.772-6.847c-2.917-3.845-4.417-8.16-4.5-12.947
		c-0.062-3.486,0.742-6.951,2.412-10.396c1.668-3.444,3.899-5.989,6.692-7.636C687.155,358.757,690.129,357.934,693.283,357.934z
		 M692.044,360.631c-1.467,0-2.933,0.436-4.396,1.308c-1.466,0.871-2.635,2.4-3.51,4.585s-1.282,4.994-1.223,8.424
		c0.097,5.534,1.279,10.305,3.549,14.317s5.202,6.017,8.799,6.017c2.684,0,4.877-1.105,6.582-3.32
		c1.704-2.212,2.509-6.017,2.415-11.411c-0.118-6.75-1.663-12.062-4.636-15.935C697.613,361.959,695.087,360.631,692.044,360.631z"
		/>
	<path fill="none" stroke="#000000" stroke-miterlimit="10" d="M728.307,357.934l0.149,8.549c3.081-5.699,6.296-8.549,9.644-8.549
		c1.521,0,2.788,0.464,3.801,1.39c1.013,0.927,1.529,1.999,1.551,3.216c0.019,1.079-0.325,1.992-1.032,2.739
		c-0.706,0.747-1.558,1.121-2.553,1.121c-0.969,0-2.063-0.477-3.282-1.432c-1.22-0.954-2.121-1.432-2.702-1.432
		c-0.498,0-1.032,0.277-1.604,0.83c-1.226,1.135-2.479,3.002-3.762,5.602l0.318,18.218c0.036,2.104,0.327,3.693,0.871,4.771
		c0.373,0.748,1.021,1.37,1.942,1.868c0.921,0.498,2.239,0.747,3.955,0.747l0.026,1.493h-19.463l-0.026-1.493
		c1.937,0,3.369-0.304,4.301-0.913c0.683-0.442,1.154-1.147,1.415-2.116c0.129-0.471,0.175-1.813,0.137-4.025l-0.257-14.732
		c-0.078-4.426-0.214-7.061-0.408-7.905c-0.194-0.843-0.537-1.459-1.028-1.847c-0.491-0.387-1.096-0.581-1.814-0.581
		c-0.858,0-1.822,0.208-2.895,0.623l-0.441-1.494l11.414-4.648H728.307z"/>
	<path fill="none" stroke="#000000" stroke-miterlimit="10" d="M743.349,359.054h17.72l0.027,1.535h-0.872
		c-1.245,0-2.175,0.27-2.787,0.809c-0.612,0.54-0.912,1.211-0.898,2.013c0.019,1.079,0.501,2.573,1.447,4.482l9.589,19.172
		l8.141-20.998c0.45-1.134,0.666-2.255,0.646-3.361c-0.008-0.498-0.112-0.872-0.311-1.121c-0.227-0.304-0.576-0.546-1.05-0.726
		c-0.474-0.18-1.305-0.27-2.494-0.27l-0.027-1.535h12.366l0.027,1.535c-1.021,0.111-1.806,0.332-2.354,0.664
		c-0.549,0.332-1.145,0.955-1.793,1.868c-0.242,0.387-0.694,1.452-1.355,3.195l-14.816,37.928c-1.43,3.68-3.34,6.46-5.727,8.342
		c-2.388,1.881-4.703,2.822-6.943,2.822c-1.633,0-2.982-0.471-4.05-1.411c-1.068-0.941-1.612-2.021-1.634-3.237
		c-0.02-1.161,0.344-2.095,1.093-2.801c0.749-0.705,1.786-1.059,3.114-1.059c0.913,0,2.164,0.305,3.751,0.914
		c1.113,0.414,1.81,0.622,2.086,0.622c0.83,0,1.728-0.43,2.695-1.286c0.968-0.858,1.928-2.519,2.881-4.979l2.582-6.599
		l-14.154-28.675c-0.43-0.857-1.111-1.922-2.047-3.195c-0.709-0.968-1.288-1.618-1.736-1.95c-0.644-0.442-1.673-0.83-3.09-1.162
		L743.349,359.054z"/>
</g>
</svg>
